<svg xmlns="http://www.w3.org/2000/svg" width="80" height="80"><defs><pattern id="a" width="80" height="80" x="0" y="0" patternUnits="userSpaceOnUse"><path fill="#f7fafc" d="M0 0h80v80H0z" opacity=".4"/><g fill="none" stroke="#718096" stroke-width=".5" opacity=".1"><path d="M0 0h40v10H0zm0 10h40v10H0zM40 0h10v40H40zm10 0h10v40H50zM0 40h40v10H0zm0 10h40v10H0zm40-10h10v40H40zm10 0h10v40H50zM60 0h10v40H60zm10 0h10v40H70zM0 60h40v10H0zm0 10h40v10H0zm60-30h10v40H60zm10 0h10v40H70z"/><path d="M40 60h40v10H40zm0 10h40v10H40z"/></g></pattern></defs><path fill="url(#a)" d="M0 0h80v80H0z"/></svg>