<svg xmlns="http://www.w3.org/2000/svg" width="200" height="100"><defs><pattern id="a" width="200" height="100" x="0" y="0" patternUnits="userSpaceOnUse"><path fill="#fefefe" d="M0 0h200v100H0z" opacity=".5"/><g fill="none" stroke="#4a5568" stroke-width=".5" opacity=".08"><path d="M12.929-11.213 41.213 17.07 27.071 31.213-1.213 2.93z"/><path d="M38.787 17.071 67.07-11.213 81.213 2.929 52.93 31.213z"/><path d="m92.929-11.213 28.284 28.284-14.142 14.142L78.787 2.93z"/><path d="m118.787 17.071 28.284-28.284 14.142 14.142-28.284 28.284z"/><path d="m172.929-11.213 28.284 28.284-14.142 14.142L158.787 2.93zM-1.213 67.071 27.07 38.787l14.142 14.142L12.93 81.213z"/><path d="M52.929 38.787 81.213 67.07 67.071 81.213 38.787 52.93z"/><path d="m78.787 67.071 28.284-28.284 14.142 14.142L92.93 81.213z"/><path d="m132.929 38.787 28.284 28.284-14.142 14.142-28.284-28.284z"/><path d="m158.787 67.071 28.284-28.284 14.142 14.142-28.284 28.284z"/></g></pattern></defs><path fill="url(#a)" d="M0 0h200v100H0z"/></svg>