<svg xmlns="http://www.w3.org/2000/svg" width="120" height="104"><defs><pattern id="a" width="120" height="104" x="0" y="0" patternUnits="userSpaceOnUse"><path fill="#f8f9fa" d="M0 0h120v104H0z" opacity=".2"/><path fill="none" stroke="#2c5282" stroke-width=".6" d="m30 0 15 8.66V26l-15 8.64L15 26V8.66zm30 17.32L75 26v17.3L60 52l-15-8.7V26zM90 0l15 8.66V26l-15 8.64L75 26V8.66zM0 34.64l15 8.66v17.34L0 69.28l-15-8.64V43.3zm30 0 15 8.66v17.34l-15 8.64-15-8.64V43.3z" opacity=".14"/><path fill="none" stroke="#2c5282" stroke-width=".6" d="m60 34.64 15 8.66v17.34l-15 8.64-15-8.64V43.3zm30 0 15 8.66v17.34l-15 8.64-15-8.64V43.3zm30 0 15 8.66v17.34l-15 8.64-15-8.64V43.3zM60 69.28 75 78v17.36L60 104l-15-8.64V78zm30 0L105 78v17.36L90 104l-15-8.64V78z" opacity=".14"/><circle cx="30" cy="17.32" r="1.2" fill="#3182ce" opacity=".1"/><circle cx="60" cy="34.64" r="1.2" fill="#3182ce" opacity=".1"/><circle cx="90" cy="17.32" r="1.2" fill="#3182ce" opacity=".1"/><circle cx="30" cy="52" r="1.2" fill="#3182ce" opacity=".1"/><circle cx="60" cy="69.28" r="1.2" fill="#3182ce" opacity=".1"/><circle cx="90" cy="52" r="1.2" fill="#3182ce" opacity=".1"/></pattern></defs><path fill="url(#a)" d="M0 0h120v104H0z"/></svg>