<svg xmlns="http://www.w3.org/2000/svg" width="240" height="240"><defs><pattern id="a" width="240" height="240" x="0" y="0" patternUnits="userSpaceOnUse"><path fill="#fff" d="M0 0h240v240H0z" opacity=".2"/><g fill="none" stroke="#2c5282" stroke-width=".8" opacity=".06"><circle cx="120" cy="40" r="4"/><circle cx="184.64" cy="80" r="4"/><circle cx="184.64" cy="160" r="4"/><circle cx="120" cy="200" r="4"/><circle cx="55.36" cy="160" r="4"/><circle cx="55.36" cy="80" r="4"/><circle cx="120" cy="80" r="4"/><circle cx="152.32" cy="100" r="4"/><circle cx="152.32" cy="140" r="4"/><circle cx="120" cy="160" r="4"/><circle cx="87.68" cy="140" r="4"/><circle cx="87.68" cy="100" r="4"/><circle cx="120" cy="120" r="4"/><path d="M120 40v80m64.64-40L120 120m64.64 40L120 120m0 80v-80m-64.64 40L120 120M55.36 80 120 120m0-40v40m32.32-20L120 120m32.32 20L120 120m0 40v-40m-32.32 20L120 120m-32.32-20L120 120m0-80 64.64 40v80L120 200l-64.64-40V80z"/><path d="m120 80 32.32 20v40L120 160l-32.32-20v-40z"/></g></pattern></defs><path fill="url(#a)" d="M0 0h240v240H0z"/></svg>