<svg xmlns="http://www.w3.org/2000/svg" width="100" height="100"><defs><pattern id="a" width="100" height="100" x="0" y="0" patternUnits="userSpaceOnUse"><path fill="#f8f9fa" d="M0 0h100v100H0z" opacity=".25"/><g fill="none" stroke="#2c5282" stroke-width=".7" opacity=".12"><path d="M50 30q-10 0-10 10 0-10-10-10 10 0 10-10 0 10 10 10Zm20 20q0-10-10-10 10 0 10-10 0 10 10 10-10 0-10 10ZM50 70q10 0 10-10 0 10 10 10-10 0-10 10 0-10-10-10ZM30 50q0 10 10 10-10 0-10 10 0-10-10-10 10 0 10-10Z"/><circle cx="50" cy="50" r="8" opacity=".08"/><circle cx="50" cy="50" r="15" opacity=".06"/><path stroke="#3182ce" stroke-width=".5" d="M50 35v5m0 20v5M35 50h5m20 0h5" opacity=".15"/></g><circle cx="25" cy="25" r="1.5" fill="#3182ce" opacity=".1"/><circle cx="75" cy="25" r="1.5" fill="#3182ce" opacity=".1"/><circle cx="25" cy="75" r="1.5" fill="#3182ce" opacity=".1"/><circle cx="75" cy="75" r="1.5" fill="#3182ce" opacity=".1"/></pattern></defs><path fill="url(#a)" d="M0 0h100v100H0z"/></svg>