<svg xmlns="http://www.w3.org/2000/svg" width="120" height="120" fill="none"><g stroke="#8FA4C4" stroke-width="1.25" opacity=".88"><path d="m60 2 56 32v52l-56 32L4 86V34Z"/><path d="m60 20 38 22v36l-38 22-38-22V42Z"/><path d="m60 44 20 12v22L60 90 40 78V56Z"/></g><g stroke="#38BDF8" stroke-width=".8" opacity=".55"><path d="m4 34 56 32 56-32"/><path d="m4 86 56-32 56 32M22 42l38-20 38 20"/><path d="m22 78 38 20 38-20"/></g><circle cx="60" cy="60" r="6" fill="#1EC98E" fill-opacity=".7"/><circle cx="60" cy="60" r="2" fill="#F8FAFC"/></svg>