<svg xmlns="http://www.w3.org/2000/svg" width="120" height="120" viewBox="0 0 120 120" fill="none"> <g opacity="0.88" stroke="#8FA4C4" stroke-width="1.25"> <path d="M60 2L116 34V86L60 118L4 86V34Z"/> <path d="M60 20L98 42V78L60 100L22 78V42Z"/> <path d="M60 44L80 56V78L60 90L40 78V56Z"/> </g> <g opacity="0.55" stroke="#38BDF8" stroke-width="0.8"> <path d="M4 34L60 66L116 34"/> <path d="M4 86L60 54L116 86"/> <path d="M22 42L60 22L98 42"/> <path d="M22 78L60 98L98 78"/> </g> <circle cx="60" cy="60" r="6" fill="#1EC98E" fill-opacity="0.7"/> <circle cx="60" cy="60" r="2" fill="#F8FAFC"/> </svg>
